<?xml version="1.0" encoding="UTF-8"?>
<svg xmlns="http://www.w3.org/2000/svg" viewBox="0 0 1281 387" preserveAspectRatio="xMidYMid meet">
<g transform="translate(0,387) scale(0.1,-0.1)" fill="currentColor" stroke="none">
<path d="M1769 3633 l-233 -238 375 -5 374 -5 2 -385 c2 -212 3 -432 3 -489
l0 -103 111 106 c61 58 170 167 242 242 l131 136 2 472 c2 259 0 479 -2 489
-5 16 -32 17 -388 17 l-384 0 -233 -237z"/>
<path d="M1004 2858 l-239 -243 378 -3 377 -2 0 -563 0 -562 -125 -127 c-68
-71 -129 -128 -135 -128 -8 0 -11 56 -10 188 1 103 1 350 1 550 l-1 362 -378
0 -378 0 -242 -242 -242 -243 380 -3 380 -2 0 -535 0 -535 369 0 369 0 246
251 246 251 1 157 c1 86 3 497 3 914 l2 757 -381 0 -381 0 -240 -242z"/>
<path d="M3850 1946 l0 -726 353 0 c390 1 449 7 582 60 243 97 394 307 424
590 33 314 -117 596 -384 721 -152 71 -166 73 -592 77 l-383 3 0 -725z m754
470 c85 -24 149 -61 205 -121 143 -152 171 -397 68 -600 -33 -65 -79 -116
-141 -157 -98 -63 -134 -70 -384 -77 l-222 -6 0 494 0 493 208 -5 c148 -3 224
-9 266 -21z"/>
<path d="M5899 2583 c-22 -49 -56 -122 -74 -163 -31 -72 -124 -275 -207 -450
-22 -47 -64 -137 -93 -200 -29 -63 -85 -185 -125 -270 -40 -85 -85 -183 -101
-217 l-28 -63 149 0 c107 0 150 3 150 12 0 6 30 77 66 157 l66 146 380 0 c328
0 382 -2 389 -15 5 -8 38 -78 73 -155 l66 -140 151 -3 c83 -1 149 1 147 5 -2
5 -22 46 -45 93 -22 47 -82 170 -132 274 -50 103 -91 189 -91 191 0 2 -39 86
-86 187 -47 100 -104 221 -126 268 -21 46 -76 162 -120 257 l-81 173 -143 0
-143 0 -42 -87z m216 -265 c15 -35 40 -90 55 -123 43 -94 69 -153 106 -242 18
-45 45 -105 59 -132 l25 -51 -276 0 c-217 0 -275 3 -271 13 5 13 82 188 172
392 30 66 61 139 70 163 10 23 21 42 25 42 4 0 20 -28 35 -62z"/>
<path d="M7110 1945 l0 -726 138 3 137 3 3 253 2 252 140 0 139 0 98 -127 c54
-71 130 -171 168 -223 38 -52 79 -110 92 -127 l24 -33 160 0 c99 0 159 4 157
10 -4 12 -220 305 -315 427 -40 52 -73 97 -73 101 0 5 17 14 38 21 304 110
393 534 156 750 -61 56 -118 89 -204 117 -48 16 -103 18 -457 22 l-403 3 0
-726z m732 481 c131 -25 188 -92 188 -221 0 -115 -28 -158 -140 -216 -43 -22
-58 -23 -272 -27 l-228 -4 0 241 0 241 193 0 c115 -1 219 -6 259 -14z"/>
<path d="M8460 2663 c0 -8 284 -853 379 -1128 29 -82 64 -187 79 -233 l27 -82
135 2 134 3 82 245 c132 399 242 734 246 755 5 22 6 22 32 -60 59 -181 106
-323 187 -560 51 -148 101 -296 112 -328 l19 -58 135 3 134 3 26 80 c15 44 75
226 135 405 220 657 318 953 318 957 0 2 -63 2 -141 1 l-140 -3 -19 -55 c-10
-30 -44 -136 -75 -235 -31 -99 -85 -268 -120 -375 -80 -246 -115 -363 -115
-384 0 -40 -18 -9 -40 67 -13 45 -47 154 -76 242 -172 529 -234 722 -234 733
0 9 -33 12 -123 12 l-124 0 -76 -227 c-41 -126 -105 -320 -141 -433 -36 -113
-81 -251 -99 -308 -31 -95 -47 -118 -47 -67 0 12 -6 41 -14 66 -8 24 -42 132
-76 239 -74 233 -133 418 -190 598 l-43 132 -143 0 c-79 0 -144 -3 -144 -7z"/>
<path d="M10880 2278 c1 -216 4 -543 7 -725 l5 -333 129 0 129 0 0 133 c0 74
1 304 2 513 0 208 0 475 0 592 l-2 212 -135 0 -135 0 0 -392z"/>
<path d="M11512 1948 l3 -723 132 -3 133 -3 2 498 3 497 195 -246 c399 -503
516 -651 555 -701 l40 -52 95 2 c52 1 105 2 118 2 l22 1 0 725 0 725 -135 0
-135 0 -2 -500 -3 -501 -39 53 c-22 29 -68 89 -102 133 -35 44 -127 163 -205
265 -79 102 -208 267 -288 368 l-146 182 -122 0 -123 0 2 -722z"/>
<path d="M2290 1749 l0 -582 -337 -339 -337 -338 -563 0 -563 0 0 535 0 535
-240 0 -240 0 -5 -22 c-4 -19 -1 -1527 4 -1535 0 -2 407 -3 904 -3 l902 0 478
478 477 478 1 319 c1 176 1 484 1 685 l-1 365 -241 3 -240 2 0 -581z"/>
</g>
</svg>
